<mxfile host="app.diagrams.net" modified="2023-04-30T00:44:54.619Z" agent="Mozilla/5.0 (Macintosh; Intel Mac OS X 10_15_7) AppleWebKit/537.36 (KHTML, like Gecko) Chrome/112.0.0.0 Safari/537.36" etag="EyBWgOoPPx_FmH50fJzB" version="21.2.3" type="device">
  <diagram name="StrÃ¡nka-1" id="YJDSDUfRnlZGT0mdk9gc">
    <mxGraphModel dx="1026" dy="664" grid="1" gridSize="10" guides="1" tooltips="1" connect="1" arrows="1" fold="1" page="1" pageScale="1" pageWidth="827" pageHeight="1169" math="0" shadow="0">
      <root>
        <mxCell id="0" />
        <mxCell id="1" parent="0" />
        <mxCell id="ZnJPQTCLaEPC_BCAwj07-6" value="" style="rounded=0;whiteSpace=wrap;html=1;fillColor=#fff2cc;strokeColor=#d6b656;" vertex="1" parent="1">
          <mxGeometry x="200" y="130" width="450" height="80" as="geometry" />
        </mxCell>
        <mxCell id="ZnJPQTCLaEPC_BCAwj07-3" value="" style="edgeStyle=orthogonalEdgeStyle;rounded=0;orthogonalLoop=1;jettySize=auto;html=1;" edge="1" parent="1" source="ZnJPQTCLaEPC_BCAwj07-1" target="ZnJPQTCLaEPC_BCAwj07-2">
          <mxGeometry relative="1" as="geometry" />
        </mxCell>
        <mxCell id="ZnJPQTCLaEPC_BCAwj07-15" value="BG" style="edgeLabel;html=1;align=center;verticalAlign=middle;resizable=0;points=[];" vertex="1" connectable="0" parent="ZnJPQTCLaEPC_BCAwj07-3">
          <mxGeometry x="-0.2333" y="-2" relative="1" as="geometry">
            <mxPoint y="-2" as="offset" />
          </mxGeometry>
        </mxCell>
        <mxCell id="ZnJPQTCLaEPC_BCAwj07-1" value="Dexcom G6" style="rounded=1;whiteSpace=wrap;html=1;" vertex="1" parent="1">
          <mxGeometry x="40" y="140" width="120" height="60" as="geometry" />
        </mxCell>
        <mxCell id="ZnJPQTCLaEPC_BCAwj07-5" value="" style="edgeStyle=orthogonalEdgeStyle;rounded=0;orthogonalLoop=1;jettySize=auto;html=1;" edge="1" parent="1" source="ZnJPQTCLaEPC_BCAwj07-2" target="ZnJPQTCLaEPC_BCAwj07-4">
          <mxGeometry relative="1" as="geometry" />
        </mxCell>
        <mxCell id="ZnJPQTCLaEPC_BCAwj07-16" value="BG" style="edgeLabel;html=1;align=center;verticalAlign=middle;resizable=0;points=[];" vertex="1" connectable="0" parent="ZnJPQTCLaEPC_BCAwj07-5">
          <mxGeometry x="-0.1" y="2" relative="1" as="geometry">
            <mxPoint y="2" as="offset" />
          </mxGeometry>
        </mxCell>
        <mxCell id="ZnJPQTCLaEPC_BCAwj07-12" style="edgeStyle=orthogonalEdgeStyle;rounded=0;orthogonalLoop=1;jettySize=auto;html=1;" edge="1" parent="1" source="ZnJPQTCLaEPC_BCAwj07-2" target="ZnJPQTCLaEPC_BCAwj07-11">
          <mxGeometry relative="1" as="geometry" />
        </mxCell>
        <mxCell id="ZnJPQTCLaEPC_BCAwj07-2" value="iPhone" style="rounded=1;whiteSpace=wrap;html=1;" vertex="1" parent="1">
          <mxGeometry x="220" y="140" width="120" height="60" as="geometry" />
        </mxCell>
        <mxCell id="ZnJPQTCLaEPC_BCAwj07-4" value="NightScout" style="rounded=1;whiteSpace=wrap;html=1;" vertex="1" parent="1">
          <mxGeometry x="510" y="140" width="120" height="60" as="geometry" />
        </mxCell>
        <mxCell id="ZnJPQTCLaEPC_BCAwj07-7" value="Until the native app is made, Nightscout will be used&amp;nbsp;" style="text;html=1;align=center;verticalAlign=middle;resizable=0;points=[];autosize=1;strokeColor=none;fillColor=none;" vertex="1" parent="1">
          <mxGeometry x="190" y="110" width="300" height="30" as="geometry" />
        </mxCell>
        <mxCell id="ZnJPQTCLaEPC_BCAwj07-9" style="edgeStyle=orthogonalEdgeStyle;rounded=0;orthogonalLoop=1;jettySize=auto;html=1;" edge="1" parent="1" target="ZnJPQTCLaEPC_BCAwj07-4">
          <mxGeometry relative="1" as="geometry">
            <mxPoint x="570" y="290" as="sourcePoint" />
          </mxGeometry>
        </mxCell>
        <mxCell id="ZnJPQTCLaEPC_BCAwj07-10" value="Request blood glucose data&amp;nbsp;" style="edgeLabel;html=1;align=center;verticalAlign=middle;resizable=0;points=[];" vertex="1" connectable="0" parent="ZnJPQTCLaEPC_BCAwj07-9">
          <mxGeometry x="0.15" relative="1" as="geometry">
            <mxPoint y="12" as="offset" />
          </mxGeometry>
        </mxCell>
        <mxCell id="ZnJPQTCLaEPC_BCAwj07-20" style="edgeStyle=orthogonalEdgeStyle;rounded=0;orthogonalLoop=1;jettySize=auto;html=1;entryX=0.5;entryY=0;entryDx=0;entryDy=0;entryPerimeter=0;" edge="1" parent="1" source="ZnJPQTCLaEPC_BCAwj07-8" target="ZnJPQTCLaEPC_BCAwj07-18">
          <mxGeometry relative="1" as="geometry" />
        </mxCell>
        <mxCell id="ZnJPQTCLaEPC_BCAwj07-8" value="Insulin Bud - backend" style="rounded=1;whiteSpace=wrap;html=1;" vertex="1" parent="1">
          <mxGeometry x="510" y="290" width="120" height="60" as="geometry" />
        </mxCell>
        <mxCell id="ZnJPQTCLaEPC_BCAwj07-14" style="edgeStyle=orthogonalEdgeStyle;rounded=0;orthogonalLoop=1;jettySize=auto;html=1;entryX=0;entryY=0.5;entryDx=0;entryDy=0;" edge="1" parent="1" source="ZnJPQTCLaEPC_BCAwj07-11" target="ZnJPQTCLaEPC_BCAwj07-8">
          <mxGeometry relative="1" as="geometry" />
        </mxCell>
        <mxCell id="ZnJPQTCLaEPC_BCAwj07-17" value="Upload food image" style="edgeLabel;html=1;align=center;verticalAlign=middle;resizable=0;points=[];" vertex="1" connectable="0" parent="ZnJPQTCLaEPC_BCAwj07-14">
          <mxGeometry x="-0.2333" y="1" relative="1" as="geometry">
            <mxPoint x="20" y="1" as="offset" />
          </mxGeometry>
        </mxCell>
        <mxCell id="ZnJPQTCLaEPC_BCAwj07-11" value="App" style="rounded=1;whiteSpace=wrap;html=1;" vertex="1" parent="1">
          <mxGeometry x="220" y="290" width="120" height="60" as="geometry" />
        </mxCell>
        <mxCell id="ZnJPQTCLaEPC_BCAwj07-13" value="Web App in the beginning" style="text;html=1;align=center;verticalAlign=middle;resizable=0;points=[];autosize=1;strokeColor=none;fillColor=none;" vertex="1" parent="1">
          <mxGeometry x="110" y="270" width="160" height="30" as="geometry" />
        </mxCell>
        <mxCell id="ZnJPQTCLaEPC_BCAwj07-18" value="DB" style="shape=cylinder3;whiteSpace=wrap;html=1;boundedLbl=1;backgroundOutline=1;size=15;" vertex="1" parent="1">
          <mxGeometry x="540" y="505" width="60" height="80" as="geometry" />
        </mxCell>
        <mxCell id="ZnJPQTCLaEPC_BCAwj07-19" value="Personalized models" style="shape=umlActor;verticalLabelPosition=bottom;verticalAlign=top;html=1;outlineConnect=0;" vertex="1" parent="1">
          <mxGeometry x="610" y="525" width="30" height="60" as="geometry" />
        </mxCell>
        <mxCell id="ZnJPQTCLaEPC_BCAwj07-21" style="edgeStyle=orthogonalEdgeStyle;rounded=0;orthogonalLoop=1;jettySize=auto;html=1;exitX=1;exitY=1;exitDx=0;exitDy=0;entryX=1;entryY=0.25;entryDx=0;entryDy=0;" edge="1" parent="1" source="ZnJPQTCLaEPC_BCAwj07-8" target="ZnJPQTCLaEPC_BCAwj07-8">
          <mxGeometry relative="1" as="geometry">
            <Array as="points">
              <mxPoint x="630" y="370" />
              <mxPoint x="790" y="370" />
              <mxPoint x="790" y="305" />
            </Array>
          </mxGeometry>
        </mxCell>
        <mxCell id="ZnJPQTCLaEPC_BCAwj07-22" value="Learns from the data" style="edgeLabel;html=1;align=center;verticalAlign=middle;resizable=0;points=[];" vertex="1" connectable="0" parent="ZnJPQTCLaEPC_BCAwj07-21">
          <mxGeometry x="-0.6444" relative="1" as="geometry">
            <mxPoint x="28" as="offset" />
          </mxGeometry>
        </mxCell>
        <mxCell id="ZnJPQTCLaEPC_BCAwj07-23" value="The goal of this app is to get the insulin dosage. &lt;br&gt;Based on the actual BG, trend and few more info and training &lt;br&gt;done by itself it can give estimate of insulin needed from the picture." style="text;html=1;align=center;verticalAlign=middle;resizable=0;points=[];autosize=1;strokeColor=none;fillColor=none;" vertex="1" parent="1">
          <mxGeometry x="150" y="390" width="380" height="60" as="geometry" />
        </mxCell>
      </root>
    </mxGraphModel>
  </diagram>
</mxfile>
